<svg width="26" height="36" viewBox="0 0 26 36" fill="none" xmlns="http://www.w3.org/2000/svg">
<g clip-path="url(#clip0_3596_20709)">
<path d="M18.8618 17.8289H19.0509C21.5682 17.8412 23.7427 18.8704 26 20.2673V16.7506C23.9082 15.6111 21.6627 14.7778 19.1218 14.7656C18.7082 14.7288 17.3373 14.6921 15.4818 15.3415L15.34 15.2435C13.8864 14.2755 12.4209 13.2952 10.8609 12.4865C11.2391 11.8861 11.8182 11.1141 12.5864 10.3912C14.3591 8.72474 16.4155 7.87927 18.7318 7.87927C21.3673 7.87927 23.6364 9.00657 26.0118 10.5137V6.97253C23.8018 5.73496 21.4382 4.80371 18.7318 4.80371C12.9055 4.80371 9.41911 8.9208 8.07184 11.3224C6.91366 10.9671 5.69639 10.7588 4.4082 10.7588C2.6473 10.7588 1.20548 11.1019 0.0118408 11.592V15.0229C1.06366 14.349 2.47002 13.8343 4.4082 13.8343C7.30366 13.8343 9.7382 15.1945 12.3855 16.9222C11.4873 17.5348 10.5537 18.3068 9.59639 19.287C8.58002 20.3408 7.5282 21.1495 6.46457 21.7009L6.32275 21.7622C5.51911 21.5906 4.89275 21.5416 4.03002 21.5416C2.80093 21.5416 1.40639 21.7009 0.0118408 22.1788V25.4872C1.19366 24.9113 2.52911 24.6172 4.03002 24.6172C7.41002 24.6172 10.1637 26.4674 13.3664 28.5995C16.8291 30.9154 20.7291 33.5253 26.0118 33.8439V30.7683C21.58 30.4497 18.2237 28.1951 14.9618 26.0263C13.3546 24.948 11.7237 23.8575 9.97457 23.0243C10.5537 22.5586 11.1327 22.044 11.6882 21.4681C15.5055 17.5103 18.7437 17.8166 18.8618 17.8289Z" fill="#2DD4BF"/>
<path d="M6.4527 14.1525C5.45998 14.1525 4.54998 13.8829 3.74634 13.3315C2.95452 12.7801 2.31634 11.9837 1.83179 10.9421C1.37089 9.88836 1.13452 8.60177 1.13452 7.08237C1.13452 5.56297 1.37089 4.28863 1.83179 3.23485C2.31634 2.18108 2.9427 1.37236 3.74634 0.820967C4.54998 0.269571 5.45998 0 6.4527 0C7.24452 0 7.98907 0.183798 8.6627 0.551396C9.34816 0.918993 9.92725 1.45813 10.4 2.15657C10.8963 2.855 11.2391 3.70048 11.44 4.70524L8.57998 5.46494C8.46179 4.64398 8.21361 4.03131 7.82361 3.62696C7.44543 3.21035 7.01998 3.00204 6.53543 3.00204C6.13361 3.00204 5.76725 3.13683 5.43634 3.41865C5.11725 3.68822 4.86907 4.12934 4.67998 4.72975C4.49089 5.3179 4.39634 6.10211 4.39634 7.08237C4.39634 8.06263 4.49089 8.83458 4.67998 9.43499C4.86907 10.0354 5.11725 10.4765 5.43634 10.7461C5.76725 11.0157 6.13361 11.1627 6.53543 11.1627C7.01998 11.1627 7.44543 10.9544 7.82361 10.55C8.21361 10.1334 8.46179 9.50851 8.57998 8.68754L11.44 9.44724C11.2391 10.4398 10.8963 11.2852 10.4 11.9959C9.91543 12.7066 9.33634 13.2335 8.6627 13.6011C7.97725 13.9687 7.24452 14.1525 6.4527 14.1525ZM14.9027 13.9442V0.220558H19.9136C20.8236 0.220558 21.6273 0.404357 22.3363 0.771954C23.0454 1.13955 23.5891 1.64193 23.9791 2.30361C24.3809 2.95303 24.5818 3.71273 24.5818 4.58271C24.5818 5.45269 24.3691 6.22464 23.9554 6.89857C23.5418 7.54799 22.9745 8.05037 22.2773 8.40572L25.0782 13.9564H21.6509L19.2636 8.93261H18.1527V13.9564H14.9027V13.9442ZM18.1527 6.24915H19.6063C20.1145 6.24915 20.5163 6.10211 20.8118 5.79578C21.1309 5.48945 21.2845 5.09735 21.2845 4.61947C21.2845 4.14159 21.1309 3.72498 20.8118 3.44316C20.5045 3.13683 20.1027 2.98979 19.6063 2.98979H18.1527V6.24915ZM1.41816 36V33.1818H4.6327V25.1069H1.41816V22.2886H11.0972V25.1069H7.8827V33.1818H11.0972V36H1.41816ZM15.1863 36V22.2764H19.89C20.7527 22.2764 21.5091 22.4357 22.1591 22.7665C22.8327 23.0851 23.3527 23.514 23.7309 24.0776C24.1091 24.6413 24.2982 25.2907 24.2982 26.0136C24.2982 26.6508 24.1209 27.2389 23.7663 27.7536C23.4118 28.2682 22.9391 28.6726 22.3482 28.9912C23.0573 29.273 23.6127 29.7018 24.0263 30.2655C24.4518 30.8169 24.6645 31.4418 24.6645 32.1525C24.6645 32.8999 24.4636 33.5616 24.0736 34.1498C23.6954 34.7257 23.1754 35.179 22.5018 35.4976C21.8282 35.8285 21.06 35.9878 20.1736 35.9878H15.1627L15.1863 36ZM18.3536 27.8026H19.5236C19.9845 27.8026 20.3627 27.6678 20.6345 27.4105C20.93 27.1409 21.0718 26.7856 21.0718 26.3567C21.0718 25.9278 20.93 25.5602 20.6582 25.3029C20.3863 25.0456 20.0082 24.9108 19.5236 24.9108H18.3536V27.8148V27.8026ZM18.3536 33.3656H19.7954C20.3036 33.3656 20.6936 33.2308 20.9891 32.9489C21.2963 32.6671 21.4382 32.2873 21.4382 31.8094C21.4382 31.3315 21.2845 30.9517 20.9891 30.6698C20.6936 30.4003 20.3036 30.2532 19.7954 30.2532H18.3536V33.3533V33.3656Z" fill="#334155"/>
</g>
<defs>
<clipPath id="clip0_3596_20709">
<rect width="26" height="36" fill="white"/>
</clipPath>
</defs>
</svg>
